<svg width="22" height="22" viewBox="0 0 22 22" fill="none" xmlns="http://www.w3.org/2000/svg">
<path opacity="0.2" d="M18.3333 10.0834C18.3333 5.52703 14.6396 1.83337 10.0833 1.83337C5.52691 1.83337 1.83325 5.52703 1.83325 10.0834C1.83325 14.6398 5.52691 18.3334 10.0833 18.3334C14.6396 18.3334 18.3333 14.6398 18.3333 10.0834Z" fill="white"/>
<path d="M16.0417 16.0416L20.1667 20.1666" stroke="white" stroke-linecap="round" stroke-linejoin="round"/>
<path d="M18.3333 10.0834C18.3333 5.52703 14.6396 1.83337 10.0833 1.83337C5.52691 1.83337 1.83325 5.52703 1.83325 10.0834C1.83325 14.6398 5.52691 18.3334 10.0833 18.3334C14.6396 18.3334 18.3333 14.6398 18.3333 10.0834Z" stroke="white" stroke-linejoin="round"/>
<path d="M5.95825 12.8334L7.64665 7.76819C7.7332 7.50852 7.9762 7.33337 8.24992 7.33337C8.52364 7.33337 8.76663 7.50852 8.85319 7.76819L10.5416 12.8334M13.2916 7.33337V12.8334M6.87492 11H9.62492" stroke="white" stroke-linecap="round" stroke-linejoin="round"/>
</svg>
