<svg width="12" height="12" viewBox="0 0 12 12" fill="none" xmlns="http://www.w3.org/2000/svg">
<g opacity="0.4">
<path d="M10.4999 8.78998V9.54408C10.4999 10.0994 10.048 10.5555 9.49603 10.4946C8.46468 10.3807 7.48558 10.0936 6.58838 9.66292L8.02008 8.25328C8.30448 7.96888 8.73048 7.88297 9.11373 8.00517C9.38048 8.09022 9.69933 8.18003 10.0007 8.23483C10.2739 8.28453 10.4999 8.51233 10.4999 8.78998Z" fill="#3D2AC8"/>
<path d="M3.21006 1.5H2.45593C1.9006 1.5 1.44456 1.95192 1.50547 2.5039C1.6193 3.53525 1.90644 4.51439 2.33712 5.41155L3.77615 3.95044C4.04546 3.68113 4.13864 3.28321 4.02972 2.91826C3.94455 2.63289 3.84859 2.28982 3.78481 1.99646C3.72581 1.72513 3.48773 1.5 3.21006 1.5Z" fill="#3D2AC8"/>
</g>
<path d="M2.45593 5.27065L3.77615 3.95044C4.04546 3.68113 4.13864 3.28321 4.02972 2.91826C3.94455 2.63289 3.84859 2.28982 3.78481 1.99646C3.72581 1.72513 3.48773 1.5 3.21006 1.5H2.45593C1.9006 1.5 1.44456 1.95192 1.50547 2.5039C1.96855 6.6998 5.3002 10.0314 9.4961 10.4945C10.0481 10.5554 10.5 10.0994 10.5 9.54405V8.78995C10.5 8.5123 10.274 8.2845 10.0008 8.2348C9.6994 8.18 9.38055 8.0902 9.1138 8.00515C8.73055 7.88295 8.30455 7.96885 8.02015 8.25325L6.72935 9.54405" stroke="#3D2AC8" stroke-linecap="round" stroke-linejoin="round"/>
</svg>
