<svg width="18" height="18" viewBox="0 0 18 18" fill="none" xmlns="http://www.w3.org/2000/svg">
<g clip-path="url(#clip0_41_2921)">
<path d="M17.0108 10.925C16.9366 10.851 16.8431 10.7996 16.7409 10.7767C16.6387 10.7537 16.5322 10.7602 16.4335 10.7954C15.1081 11.2679 13.6757 11.3547 12.3029 11.0456C10.93 10.7365 9.67309 10.0442 8.67807 9.0491C7.68306 8.05403 6.99082 6.79705 6.68179 5.4242C6.37275 4.05135 6.45961 2.61899 6.93227 1.29354C6.96739 1.19489 6.97383 1.0883 6.95085 0.986141C6.92786 0.883979 6.87639 0.790423 6.80241 0.71632C6.72842 0.642217 6.63494 0.590601 6.53282 0.567457C6.43069 0.544313 6.3241 0.550588 6.22539 0.585555C5.03041 1.00754 3.94596 1.69358 3.05277 2.59261C1.45156 4.19503 0.552306 6.36777 0.552735 8.63307C0.553163 10.8984 1.45324 13.0708 3.05505 14.6726C4.65686 16.2744 6.82926 17.1745 9.09456 17.1749C11.3599 17.1753 13.5326 16.2761 15.135 14.6749C16.0341 13.7815 16.7202 12.6969 17.1421 11.5017C17.1769 11.403 17.1831 11.2964 17.1598 11.1943C17.1366 11.0923 17.0849 10.9989 17.0108 10.925ZM14.3517 13.8915C13.5963 14.6448 12.6877 15.2267 11.6875 15.5977C10.6873 15.9687 9.61903 16.1202 8.55514 16.0418C7.49125 15.9635 6.45668 15.6571 5.52168 15.1435C4.58667 14.6299 3.77313 13.9211 3.13628 13.0653C2.49943 12.2095 2.0542 11.2267 1.8308 10.1835C1.6074 9.14042 1.61108 8.06144 1.84158 7.01987C2.07207 5.97829 2.524 4.99851 3.16666 4.14705C3.80932 3.29559 4.62768 2.59238 5.56616 2.08517C5.28833 3.46831 5.35526 4.89857 5.76104 6.24971C6.16682 7.60086 6.89897 8.83134 7.89286 9.83255C8.89396 10.8266 10.1244 11.5589 11.4756 11.9647C12.8268 12.3704 14.2571 12.4373 15.6402 12.1592C15.2977 12.7966 14.8636 13.3802 14.3517 13.8915Z" fill="#8E8E8E"/>
</g>
<defs>
<clipPath id="clip0_41_2921">
<rect width="17.7273" height="17.7273" fill="white"/>
</clipPath>
</defs>
</svg>
