<svg width="12" height="12" viewBox="0 0 12 12" fill="none" xmlns="http://www.w3.org/2000/svg">
<path d="M9.75 6.75V5.25C9.75 3.37071 9.75 2.43107 9.28555 1.80373C9.21125 1.70339 9.12935 1.61059 9.04085 1.5264C8.4873 1 7.6582 1 6 1C4.3418 1 3.51271 1 2.95917 1.5264C2.87064 1.61059 2.78876 1.70339 2.71447 1.80373C2.25 2.43107 2.25 3.37071 2.25 5.25V6.75C2.25 8.6293 2.25 9.56895 2.71447 10.1962C2.78876 10.2966 2.87064 10.3894 2.95917 10.4736C3.51271 11 4.3418 11 6 11C7.6582 11 8.4873 11 9.04085 10.4736C9.12935 10.3894 9.21125 10.2966 9.28555 10.1962C9.75 9.56895 9.75 8.6293 9.75 6.75Z" stroke="#6FCDFF" stroke-width="0.75" stroke-linecap="round"/>
<path d="M7.5 8C7.5 8.82845 6.82845 9.5 6 9.5C5.17155 9.5 4.5 8.82845 4.5 8C4.5 7.17155 5.17155 6.5 6 6.5C6.82845 6.5 7.5 7.17155 7.5 8Z" stroke="#6FCDFF" stroke-width="0.75"/>
<path opacity="0.4" fill-rule="evenodd" clip-rule="evenodd" d="M9.7499 5L9.75 6.75C9.75 8.6293 9.75 9.56895 9.28555 10.1962C9.21125 10.2966 9.12935 10.3894 9.04085 10.4736C8.4873 11 7.6582 11 6 11C4.3418 11 3.51271 11 2.95917 10.4736C2.87064 10.3894 2.78876 10.2966 2.71447 10.1962C2.25 9.56895 2.25 8.6293 2.25 6.75L2.25005 5H9.7499ZM6 9.5C6.82845 9.5 7.5 8.82845 7.5 8C7.5 7.17155 6.82845 6.5 6 6.5C5.17155 6.5 4.5 7.17155 4.5 8C4.5 8.82845 5.17155 9.5 6 9.5Z" fill="#6FCDFF"/>
<path d="M2.25 5H9.75" stroke="#6FCDFF" stroke-width="0.75" stroke-linecap="round"/>
</svg>
