<svg width="28" height="28" viewBox="0 0 28 28" fill="none" xmlns="http://www.w3.org/2000/svg">
<circle cx="13.5909" cy="13.5909" r="13.5909" fill="url(#paint0_linear_41_2917)" fill-opacity="0.2"/>
<g clip-path="url(#clip0_41_2917)">
<path d="M16.7333 10.4488C15.9361 9.65154 14.8105 9.13566 13.5912 9.13566C12.3718 9.13566 11.2463 9.62809 10.449 10.4488C9.65178 11.2461 9.13591 12.3716 9.13591 13.5909C9.13591 14.8103 9.65178 15.9358 10.449 16.7331C11.2463 17.5303 12.3718 18.0462 13.5912 18.0462C14.8105 18.0462 15.9361 17.5538 16.7333 16.7331C17.5306 15.9358 18.0464 14.8103 18.0464 13.5909C18.0464 12.3716 17.554 11.2461 16.7333 10.4488ZM15.8892 15.8889C15.3029 16.4751 14.4822 16.8269 13.5912 16.8269C12.7001 16.8269 11.8794 16.4751 11.2932 15.8889C10.707 15.3027 10.3552 14.482 10.3552 13.5909C10.3552 12.6999 10.707 11.8792 11.2932 11.293C11.8794 10.7067 12.7001 10.355 13.5912 10.355C14.4822 10.355 15.3029 10.7067 15.8892 11.293C16.4754 11.8792 16.8271 12.6999 16.8271 13.5909C16.8271 14.482 16.4754 15.3027 15.8892 15.8889ZM21.8451 12.9813H20.0396C19.7113 12.9813 19.4299 13.2626 19.4299 13.5909C19.4299 13.9192 19.7113 14.2006 20.0396 14.2006H21.8451C22.1734 14.2006 22.4548 13.9192 22.4548 13.5909C22.4548 13.2626 22.1734 12.9813 21.8451 12.9813ZM13.5912 19.4297C13.2629 19.4297 12.9815 19.7111 12.9815 20.0393V21.8449C12.9815 22.1732 13.2629 22.4546 13.5912 22.4546C13.9195 22.4546 14.2008 22.1732 14.2008 21.8449V20.0393C14.2008 19.7111 13.9195 19.4297 13.5912 19.4297ZM19.852 19.0076L18.5623 17.7179C18.3513 17.4834 17.9526 17.4834 17.7182 17.7179C17.4837 17.9524 17.4837 18.3276 17.7182 18.5621L19.0078 19.8518C19.2423 20.0862 19.6175 20.0862 19.852 19.8518C20.0865 19.6173 20.0865 19.2421 19.852 19.0076ZM13.5912 4.72729C13.2629 4.72729 12.9815 5.00868 12.9815 5.33696V7.14252C12.9815 7.4708 13.2629 7.75219 13.5912 7.75219C13.9195 7.75219 14.2008 7.4708 14.2008 7.14252V5.33696C14.2008 5.00868 13.9195 4.72729 13.5912 4.72729ZM19.8754 7.33011C19.641 7.09562 19.2658 7.09562 19.0313 7.33011L17.7416 8.61979C17.5071 8.85428 17.5071 9.22946 17.7416 9.46395C17.9526 9.69843 18.3513 9.69843 18.5858 9.46395L19.8754 8.17426C20.1099 7.93978 20.1099 7.5646 19.8754 7.33011ZM7.14276 12.9813H5.33721C5.00892 12.9813 4.72754 13.2626 4.72754 13.5909C4.72754 13.9192 4.98548 14.2006 5.33721 14.2006H7.14276C7.47105 14.2006 7.75243 13.9192 7.75243 13.5909C7.75243 13.2626 7.47105 12.9813 7.14276 12.9813ZM9.44074 17.7179C9.2297 17.4834 8.83107 17.4834 8.59659 17.7179L7.3069 19.0076C7.07242 19.2421 7.07242 19.6173 7.3069 19.8518C7.54139 20.0862 7.91657 20.0862 8.15106 19.8518L9.44074 18.5621C9.67523 18.3276 9.67523 17.9524 9.44074 17.7179ZM9.44074 8.61979L8.15106 7.33011C7.91657 7.09562 7.54139 7.09562 7.3069 7.33011C7.07242 7.5646 7.07242 7.93978 7.3069 8.17426L8.59659 9.46395C8.83107 9.69843 9.20625 9.69843 9.44074 9.46395C9.67523 9.22946 9.67523 8.85428 9.44074 8.61979Z" fill="url(#paint1_linear_41_2917)"/>
</g>
<defs>
<linearGradient id="paint0_linear_41_2917" x1="5.23816" y1="1.88762" x2="21.4267" y2="8.78145" gradientUnits="userSpaceOnUse">
<stop stop-color="#5C39D9"/>
<stop offset="1" stop-color="#7B6FFF"/>
</linearGradient>
<linearGradient id="paint1_linear_41_2917" x1="8.14373" y1="5.95835" x2="18.7014" y2="10.4543" gradientUnits="userSpaceOnUse">
<stop stop-color="#5C39D9"/>
<stop offset="1" stop-color="#7B6FFF"/>
</linearGradient>
<clipPath id="clip0_41_2917">
<rect width="17.7273" height="17.7273" fill="white" transform="translate(4.72754 4.72729)"/>
</clipPath>
</defs>
</svg>
