<svg width="12" height="12" viewBox="0 0 12 12" fill="none" xmlns="http://www.w3.org/2000/svg">
<path d="M6.80885 10.6835C6.59205 10.8865 6.3022 11 6.00055 11C5.6989 11 5.4091 10.8865 5.19225 10.6835C3.20651 8.813 0.54538 6.72345 1.84314 3.68983C2.54482 2.04958 4.22917 1 6.00055 1C7.77195 1 9.4563 2.04958 10.158 3.68983C11.4541 6.71965 8.7995 8.81945 6.80885 10.6835Z" stroke="#BC6FFF" stroke-width="0.75"/>
<path opacity="0.4" fill-rule="evenodd" clip-rule="evenodd" d="M6.00055 11C6.3022 11 6.59205 10.8865 6.80885 10.6835C6.9603 10.5417 7.11555 10.3986 7.2726 10.2537C9.18045 8.49465 11.3555 6.4892 10.158 3.68983C9.4563 2.04958 7.77195 1 6.00055 1C4.22917 1 2.54482 2.04958 1.84314 3.68983C0.650465 6.4778 2.8015 8.4684 4.69904 10.2244C4.86623 10.3791 5.03145 10.532 5.19225 10.6835C5.4091 10.8865 5.6989 11 6.00055 11ZM6 7.25C6.9665 7.25 7.75 6.4665 7.75 5.5C7.75 4.5335 6.9665 3.75 6 3.75C5.0335 3.75 4.25 4.5335 4.25 5.5C4.25 6.4665 5.0335 7.25 6 7.25Z" fill="#BC6FFF"/>
<path d="M7.75 5.5C7.75 6.4665 6.9665 7.25 6 7.25C5.0335 7.25 4.25 6.4665 4.25 5.5C4.25 4.5335 5.0335 3.75 6 3.75C6.9665 3.75 7.75 4.5335 7.75 5.5Z" stroke="#BC6FFF" stroke-width="0.75"/>
</svg>
