<svg width="12" height="12" viewBox="0 0 12 12" fill="none" xmlns="http://www.w3.org/2000/svg">
<path opacity="0.4" d="M6.75 1H5.25C4.07149 1 3.48224 1 3.11612 1.36611C2.75 1.73223 2.75 2.32149 2.75 3.5V8.5C2.75 9.6785 2.75 10.2677 3.11612 10.6339C3.48224 11 4.07149 11 5.25 11H6.75C7.9285 11 8.51775 11 8.8839 10.6339C9.25 10.2677 9.25 9.6785 9.25 8.5V3.5C9.25 2.32149 9.25 1.73223 8.8839 1.36611C8.51775 1 7.9285 1 6.75 1Z" fill="#7157BF"/>
<path d="M6 9.5H6.005" stroke="#7157BF" stroke-linecap="round" stroke-linejoin="round"/>
<path d="M6.75 1H5.25C4.07149 1 3.48224 1 3.11612 1.36611C2.75 1.73223 2.75 2.32149 2.75 3.5V8.5C2.75 9.6785 2.75 10.2677 3.11612 10.6339C3.48224 11 4.07149 11 5.25 11H6.75C7.9285 11 8.51775 11 8.8839 10.6339C9.25 10.2677 9.25 9.6785 9.25 8.5V3.5C9.25 2.32149 9.25 1.73223 8.8839 1.36611C8.51775 1 7.9285 1 6.75 1Z" stroke="#7157BF" stroke-width="0.75" stroke-linecap="round" stroke-linejoin="round"/>
</svg>
